<svg id="Layer_1" data-name="Layer 1" xmlns="http://www.w3.org/2000/svg" xmlns:xlink="http://www.w3.org/1999/xlink" viewBox="0 0 123 114.25"><defs><style>.cls-1,.cls-7{fill:none;}.cls-2{clip-path:url(#clip-path);}.cls-3{fill:#d5d7d8;}.cls-4{fill:#fff;}.cls-5{fill:#65bc46;}.cls-6{fill:#43a244;}.cls-7{stroke:#fff;stroke-miterlimit:10;stroke-width:3.5px;}.cls-8{fill:#e6e6e6;}.cls-9{fill:#2d4f8e;}</style><clipPath id="clip-path"><path class="cls-1" d="M108.124,56.457A51.352,51.352,0,1,1,56.768,5.109,51.41219,51.41219,0,0,1,108.124,56.457Z"/></clipPath></defs><title>Artboard 1</title><g class="cls-2"><path class="cls-3" d="M77.732,132.791c-1.801-8.285-12.262-27.039-16.229-34.969-3.965-7.93-7.939-19.11-6.129-26.322C55.701,70.188,39.418,55.707,40.5,55c8.416-5.49-2.369-6.039,1-8.5,1.736-1.273,2.899-3.894,3.5-6,2.158-7.568,23.706-4.696,17.942-10.463a15.47415,15.47415,0,0,0-8.029-3.686,17.7717,17.7717,0,0,0-6.138-4.879,59.5599,59.5599,0,0,0-13.717-4.535c-2.492-.41-3.055.287-4.119.461.992.088,5.699,2.414,6.615,2.549-.916.619-3.607-.029-5.324.742a3.436,3.436,0,0,0-1.506,2.58c4.91-.496,12.574-.016,17.1,2-3.602.41-9.08.867-11.436,2.105-6.848,3.609-9.873,12.035-8.07,22.133,1.804,10.075,9.738,46.849,12.262,59.129,2.525,12.263-5.408,20.189-10.455,22.354l5.408.363-1.801,3.967c6.484.719,13.695-1.441,13.695-1.441-1.438,3.965-11.176,5.412-11.176,5.412s4.691,1.438,12.258-1.447c7.575-2.883,12.264-4.688,12.264-4.688l3.604,9.373,6.854-6.846,2.886,7.211C74.125,142.893,79.535,141.086,77.732,132.791Z"/><path class="cls-4" d="M79.91,131.109c-1.795-8.289-12.256-27.043-16.227-34.978S55.747,77.019,57.554,69.81c.334-1.309-14.66737-10.849-13.57938-11.56C39.5,41.8937,39.376,53.211,42.75,50.75c1.74-1.27-.855-12.49932-.25-14.60632,2.164-7.572,26.209-.33768,20.442-6.10667-1.879-1.879-2.577-4.754-5.834-5.378a17.7362,17.7362,0,0,0-6.129-4.881,28.821,28.821,0,0,0-18.266-2.883c.99.09,3.256,2.137,4.168,2.273-1.381.936-5.053.816-5.029,2.896a30.12183,30.12183,0,0,1,14.834,2.297,27.46807,27.46807,0,0,0-9.311,2.543c-6.854,3.602-8.656,10.812-6.854,20.914,1.807,10.096,9.742,46.871,12.256,59.126,2.527,12.259-5.402,20.188-10.449,22.353l5.408.359-1.801,3.973c6.484.72,13.695-1.44,13.695-1.44-1.438,3.972-11.176,5.406-11.176,5.406s4.686,1.44,12.258-1.445c7.578-2.883,12.27-4.687,12.27-4.687l3.602,9.373,6.854-6.853,2.891,7.214C76.314,141.205,81.719,139.4,79.91,131.109Z"/></g><path class="cls-5" d="M58.383,94.225s-14.1-7.521-14.33-4.47c-.238,3.056,0,15.509,1.643,16.451,1.646.938,13.395-6.108,13.395-6.108Z"/><path class="cls-5" d="M63.785,93.751s9.635-7.285,11.754-6.815c2.111.479,2.582,15.51.701,16.227-1.881.693-12.908-3.814-12.908-3.814Z"/><path class="cls-6" d="M54.969,95.021c0,4.931-.709,7.049,1.41,7.517,2.112.473,6.105,0,7.518-.938,1.41-.938.232-7.281-.232-8.465C63.188,91.964,54.969,92.907,54.969,95.021Z"/><path class="cls-5" d="M55.865,93.925c0,4.933-.707,7.05,1.41,7.519,2.106.477,6.104,0,7.518-.938,1.41-.941.232-7.279-.238-8.466C64.084,90.868,55.865,91.812,55.865,93.925Z"/><circle class="cls-7" cx="56.771" cy="56.59802" r="52.99999"/><path class="cls-3" d="M41.02224,39.25c0-4.896,4-10,12-10,5.581,0,9.74875-.25,9.74875,6.75h39c0-3,2-6,7-6s7,3.5,7,6c2,0,3,.87,3,3.032,0,7.5-5.208,11.968-12,11.968h-31l-7,7h32.5c6.426,0,12.5,6.074,12.5,12.5a2.49834,2.49834,0,0,1-2.5,2.5H57.091c-.32-9.25-.32-9.25-.32-11.25C56.771,60.453,41.02224,39.25,41.02224,39.25Z"/><path class="cls-8" d="M108.52224,54.25a2.49835,2.49835,0,0,1-2.5-2.5v-5a2.5,2.5,0,1,1,5,0v5A2.49834,2.49834,0,0,1,108.52224,54.25Z"/><path class="cls-8" d="M100.52224,61.75a2.49835,2.49835,0,0,1-2.5-2.5v-5a2.5,2.5,0,1,1,5,0v5A2.49834,2.49834,0,0,1,100.52224,61.75Z"/><path class="cls-4" d="M41.02224,35c0-4.896,4-10,12-10,5.581,0,12,3,12,10h39c0-3,2-6,7-6s7,3.5,7,6c2,0,3,.87,3,3.032,0,7.5-5.208,11.968-12,11.968h-31l-7,7h32.5c6.426,0,12.5,6.074,12.5,12.5a2.49834,2.49834,0,0,1-2.5,2.5h-68.5a4.30157,4.30157,0,0,1-4-4Z"/><circle class="cls-3" cx="53.02224" cy="37.00002" r="5"/><circle class="cls-9" cx="53.02224" cy="37.00002" r="3"/><circle class="cls-9" cx="111.02224" cy="37.00002" r="3"/></svg>