<svg id="Layer_1" data-name="Layer 1" xmlns="http://www.w3.org/2000/svg" xmlns:xlink="http://www.w3.org/1999/xlink" viewBox="0 0 129.5 124.5"><defs><style>.cls-1,.cls-3{fill:none;}.cls-2{fill:#de5833;}.cls-3{stroke:#de5833;stroke-miterlimit:10;stroke-width:5px;}.cls-4{clip-path:url(#clip-path);}.cls-5{fill:#d5d7d8;}.cls-6{fill:#fff;}.cls-7{fill:#65bc46;}.cls-8{fill:#43a244;}.cls-9{fill:#e6e6e6;}.cls-10{fill:#2d4f8e;}</style><clipPath id="clip-path"><path class="cls-1" d="M114.3,62.6A51.35,51.35,0,1,1,62.9,11.3,51.448,51.448,0,0,1,114.3,62.6Z"/></clipPath></defs><title>Artboard 1</title><circle class="cls-2" cx="62.8" cy="62.50002" r="51.1"/><circle class="cls-3" cx="62.8" cy="62.50002" r="57.5"/><g class="cls-4"><path class="cls-5" d="M83.9,139c-1.8-8.3-12.3-27-16.2-35-4-7.9-7.9-19.1-6.1-26.3.3-1.3-16-15.8-14.9-16.5,8.4-5.5-2.4-6,1-8.5,1.7-1.3,2.9-3.9,3.5-6,2.2-7.6,23.7-4.7,17.9-10.5a15.28882,15.28882,0,0,0-8-3.7A18.65391,18.65391,0,0,0,55,27.6a59.46673,59.46673,0,0,0-13.7-4.5c-2.5-.4-3.1.3-4.1.5,1,.1,5.7,2.4,6.6,2.5-.9.6-3.6,0-5.3.7A3.39893,3.39893,0,0,0,37,29.4c4.9-.5,12.6,0,17.1,2-3.6.4-9.1.9-11.4,2.1-6.8,3.6-9.9,12-8.1,22.1s9.7,46.8,12.3,59.1c2.5,12.3-5.4,20.2-10.5,22.4l5.4.4-1.8,4c6.5.7,13.7-1.4,13.7-1.4-1.4,4-11.2,5.4-11.2,5.4s4.7,1.4,12.3-1.4c7.6-2.9,12.3-4.7,12.3-4.7l3.6,9.4,6.9-6.8,2.9,7.2C80.3,149.1,85.7,147.3,83.9,139Z"/><path class="cls-6" d="M86.1,137.3c-1.8-8.3-12.3-27-16.2-35s-8-19.1-6.2-26.3C64,74.7,49,65.2,50.1,64.4c-4.5-16.4-4.6-5-1.2-7.5,1.7-1.3-.9-12.5-.2-14.6,2.2-7.6,26.2-.3,20.4-6.1-1.9-1.9-2.6-4.8-5.8-5.4a18.65391,18.65391,0,0,0-6.1-4.9A28.83856,28.83856,0,0,0,38.9,23c1,.1,3.3,2.1,4.2,2.3-1.4.9-5.1.8-5,2.9a30.01,30.01,0,0,1,14.8,2.3A27.874,27.874,0,0,0,43.6,33c-6.9,3.6-8.7,10.8-6.9,20.9S46.4,100.8,49,113c2.5,12.3-5.4,20.2-10.4,22.4l5.4.4-1.8,4c6.5.7,13.7-1.4,13.7-1.4-1.4,4-11.2,5.4-11.2,5.4s4.7,1.4,12.3-1.4c7.6-2.9,12.3-4.7,12.3-4.7l3.6,9.4,6.9-6.9,2.9,7.2C82.5,147.4,87.9,145.6,86.1,137.3Z"/></g><path class="cls-7" d="M64.6,100.4s-14.1-7.5-14.3-4.5c-.2,3.1,0,15.5,1.6,16.5,1.6.9,13.4-6.1,13.4-6.1Z"/><path class="cls-7" d="M70,99.9s9.6-7.3,11.8-6.8c2.1.5,2.6,15.5.7,16.2s-12.9-3.8-12.9-3.8Z"/><path class="cls-8" d="M61.1,101.2c0,4.9-.7,7,1.4,7.5s6.1,0,7.5-.9.2-7.3-.2-8.5S61.1,99.1,61.1,101.2Z"/><path class="cls-7" d="M62,100.1c0,4.9-.7,7.1,1.4,7.5,2.1.5,6.1,0,7.5-.9s.2-7.3-.2-8.5S62,98,62,100.1Z"/><path class="cls-5" d="M47.2,45.4c0-4.9,4-10,12-10,5.6,0,9.7-.2,9.7,6.8h39c0-3,2-6,7-6s7,3.5,7,6c2,0,3,.9,3,3,0,7.5-5.2,12-12,12h-31l-7,7h32.5c6.4,0,12.5,6.1,12.5,12.5a2.47572,2.47572,0,0,1-2.5,2.5H63.3C63,70,63,70,63,68,62.9,66.6,47.2,45.4,47.2,45.4Z"/><path class="cls-9" d="M114.7,60.4a2.47572,2.47572,0,0,1-2.5-2.5v-5a2.5,2.5,0,0,1,5,0v5A2.47572,2.47572,0,0,1,114.7,60.4Z"/><path class="cls-9" d="M106.7,67.9a2.47572,2.47572,0,0,1-2.5-2.5v-5a2.5,2.5,0,0,1,5,0v5A2.47572,2.47572,0,0,1,106.7,67.9Z"/><path class="cls-6" d="M47.2,41.2c0-4.9,4-10,12-10,5.6,0,12,3,12,10h39c0-3,2-6,7-6s7,3.5,7,6c2,0,3,.9,3,3,0,7.5-5.2,12-12,12h-31l-7,7h32.5c6.4,0,12.5,6.1,12.5,12.5a2.47572,2.47572,0,0,1-2.5,2.5H51.2a4.30157,4.30157,0,0,1-4-4Z"/><circle class="cls-5" cx="59.2" cy="43.20002" r="5"/><circle class="cls-10" cx="59.2" cy="43.20002" r="3"/><circle class="cls-5" cx="117.2" cy="43.20002" r="3"/></svg>